<?xml version="1.0" standalone="no"?>
<!DOCTYPE svg PUBLIC "-//W3C//DTD SVG 20010904//EN"
 "http://www.w3.org/TR/2001/REC-SVG-20010904/DTD/svg10.dtd">
<svg version="1.0" xmlns="http://www.w3.org/2000/svg"
 width="260.000000pt" height="260.000000pt" viewBox="0 0 260.000000 260.000000"
 preserveAspectRatio="xMidYMid meet">
<metadata>
Created by potrace 1.11, written by Peter Selinger 2001-2013
</metadata>
<g transform="translate(0.000000,260.000000) scale(0.100000,-0.100000)"
fill="#000000" stroke="none">
<path d="M535 2585 c-220 -49 -386 -182 -475 -378 -60 -135 -60 -131 -57 -932
l2 -730 27 -80 c46 -134 119 -239 227 -324 76 -60 148 -93 272 -128 13 -4 346
-9 740 -10 789 -4 803 -3 938 58 194 88 344 279 379 484 4 22 7 371 7 775 l0
735 -27 80 c-72 211 -223 362 -433 433 l-80 27 -730 2 c-582 1 -742 -1 -790
-12z m1576 -266 c87 -42 154 -104 195 -182 42 -82 46 -101 50 -290 l4 -178
-138 1 c-75 1 -176 1 -223 0 l-85 0 -59 -117 c-145 -293 -225 -461 -225 -473
0 -7 -2 -11 -6 -8 -3 3 -5 139 -4 302 l0 296 -47 0 c-191 2 -325 0 -331 -4
-13 -8 -9 -1256 5 -1264 6 -4 92 -6 191 -4 l181 3 0 267 c0 147 0 287 1 312
l0 45 34 -75 c18 -41 56 -118 84 -170 28 -52 75 -142 104 -200 29 -58 55 -107
58 -110 3 -3 13 -18 22 -35 l17 -30 161 -5 162 -5 -24 -25 c-31 -35 -113 -90
-132 -90 -8 0 -17 -4 -20 -9 -15 -24 -162 -29 -821 -27 -436 2 -701 7 -720 13
-69 23 -195 104 -195 124 0 2 46 4 102 4 118 0 173 7 243 31 63 21 147 76 181
117 14 18 32 40 40 50 8 9 14 19 14 22 0 3 8 24 19 48 27 61 40 116 46 188 6
80 8 819 2 825 -6 6 -369 6 -375 -1 -3 -3 -6 -182 -7 -397 -1 -256 -6 -405
-13 -427 -39 -119 -151 -162 -289 -111 -35 12 -64 30 -67 39 -2 9 -4 287 -4
618 1 459 4 613 14 650 17 66 57 141 96 183 34 36 102 90 113 90 4 0 21 7 38
15 18 8 50 18 72 23 22 5 360 8 750 8 l710 -1 76 -36z m245 -1201 c-2 -494 -6
-588 -25 -588 -5 0 -21 23 -37 51 -16 28 -33 58 -39 68 -5 9 -23 39 -40 66
-34 57 -38 65 -120 204 -33 56 -66 112 -74 124 -13 21 -4 38 117 242 72 121
134 225 139 230 13 17 41 67 58 103 8 17 17 32 19 32 2 0 3 -240 2 -532z"/>
</g>
</svg>
