<?xml version="1.0" encoding="UTF-8" standalone="no"?>
<svg xmlns:dc="http://purl.org/dc/elements/1.1/"
   xmlns:cc="http://creativecommons.org/ns#"
   xmlns:rdf="http://www.w3.org/1999/02/22-rdf-syntax-ns#"
   xmlns:svg="http://www.w3.org/2000/svg"
   xmlns="http://www.w3.org/2000/svg" width="53.571636mm" height="45.506699mm" viewBox="0 0 53.571636 45.506699" version="1.1" id="svg8">
   <defs id="defs2" />
   <metadata id="metadata5">
      <rdf:RDF>
         <cc:Work rdf:about="">
            <dc:format>image/svg+xml</dc:format>
            <dc:type rdf:resource="http://purl.org/dc/dcmitype/StillImage" />
            <dc:title></dc:title>
         </cc:Work>
      </rdf:RDF>
   </metadata>
   <g id="layer1" transform="translate(-7.3758076,-109.13551)">
      <path style="fill:#000000;stroke-width:0.0846667" d="m 56.890921,154.52682 c -0.194455,-0.0635 -0.480205,-0.19415 -0.635,-0.29039 -0.154796,-0.0962 -0.441439,-0.33922 -0.636984,-0.53995 l -0.355537,-0.36497 -0.218374,-0.47855 -0.218375,-0.47854 -0.05065,-0.54239 -0.05065,-0.54239 0.144612,-0.50307 0.144611,-0.50306 0.25578,-0.40192 0.255781,-0.40191 0.308835,-0.24299 c 0.16986,-0.13364 0.480286,-0.33378 0.689836,-0.44475 l 0.381,-0.20177 h 0.931333 0.931333 l 0.381,0.20272 c 0.20955,0.11149 0.501612,0.29454 0.649026,0.40677 0.147415,0.11223 0.403536,0.402 0.569158,0.64395 l 0.301131,0.4399 0.139327,0.54903 0.139328,0.54903 -0.05247,0.50203 -0.05247,0.50203 -0.20559,0.44907 -0.205591,0.44906 -0.397388,0.42484 -0.397388,0.42484 -0.476367,0.22799 -0.476367,0.22798 -0.719667,0.0264 -0.719667,0.0264 z m 1.968937,-0.40334 0.430051,-0.15833 0.33789,-0.28922 0.337888,-0.28922 0.290393,-0.5356 0.290393,-0.5356 -8.46e-4,-0.71967 -8.47e-4,-0.71967 -0.182128,-0.39587 -0.182128,-0.39587 -0.346425,-0.37583 -0.346425,-0.37583 -0.50549,-0.22685 -0.505489,-0.22685 -0.41723,-0.0494 -0.417228,-0.0494 -0.614297,0.18659 -0.614295,0.18659 -0.481003,0.481 -0.481002,0.481 -0.191453,0.50738 -0.191452,0.50737 0.03695,0.59267 0.03695,0.59267 0.170845,0.3853 c 0.09396,0.21191 0.295869,0.52769 0.448677,0.70173 0.152808,0.17404 0.452526,0.41881 0.666038,0.54394 l 0.388204,0.2275 0.468017,0.0953 0.468016,0.0953 0.338667,-0.0413 c 0.186267,-0.0228 0.53219,-0.1126 0.768718,-0.19968 z m -2.081051,-2.52764 v -1.60867 h 0.850871 0.850871 l 0.242744,0.12553 0.242743,0.12553 0.09977,0.3023 0.09977,0.3023 -0.05666,0.22834 c -0.03116,0.12558 -0.13482,0.31208 -0.230349,0.41444 l -0.17369,0.18611 -0.241661,0.0531 -0.241661,0.0531 0.406654,0.60748 c 0.223659,0.33411 0.43469,0.6551 0.468957,0.71331 l 0.0623,0.10584 -0.23783,-1.7e-4 -0.23783,-1.7e-4 -0.4513,-0.71953 -0.4513,-0.71953 h -0.289533 -0.289534 v 0.71967 0.71967 h -0.211666 -0.211666 v -1.60867 z m 1.674494,-0.30113 0.188172,-0.13181 v -0.28548 -0.28549 l -0.133047,-0.13304 -0.133048,-0.13305 H 57.788759 57.20214 v 0.55033 0.55034 h 0.531494 0.531495 z m -48.9343034,2.84766 c -0.218246,-0.0855 -0.530912,-0.23831 -0.694815,-0.33961 -0.163903,-0.1013 -0.469065,-0.37444 -0.678139,-0.60698 l -0.380134,-0.4228 -0.195051,-0.48274 -0.195051,-0.48273 v -20.10834 -20.10833 l 0.196477,-0.48655 0.196478,-0.48655 0.423986,-0.46391 0.423985,-0.46391 0.56309,-0.2772 0.56309,-0.27721 H 29.981807 50.220701 l 0.56309,0.27721 0.56309,0.2772 0.423986,0.46391 0.423985,0.46391 0.196477,0.48655 0.196478,0.48655 v 20.10833 20.10834 l -0.196478,0.48655 -0.196477,0.48655 -0.423985,0.46391 -0.423986,0.4639 -0.563082,0.27721 -0.563082,0.27721 -20.152455,0.0175 -20.1524544,0.0175 z m 11.2556314,-17.2997 0.02149,-10.81616 H 17.40913 14.022142 v 10.8383 10.83831 l 3.3655,-0.0221 3.3655,-0.0221 z m 10.943084,5.03767 2.54e-4,-5.82083 0.09299,-0.762 0.09299,-0.762 0.201903,-0.64071 0.201903,-0.64071 0.332749,-0.46468 0.332747,-0.46468 0.334987,-0.23214 c 0.184241,-0.12768 0.53987,-0.31192 0.790284,-0.40942 l 0.455299,-0.17727 0.902546,-0.0409 0.902545,-0.0409 0.611719,0.1858 0.611719,0.18581 0.436337,0.43859 0.436338,0.43859 0.188755,0.40448 c 0.103816,0.22247 0.252684,0.64157 0.33082,0.93134 l 0.142064,0.52685 0.04691,6.56166 0.04691,6.56167 3.3655,0.0221 3.3655,0.0221 v -6.80194 -6.80193 l -0.09203,-0.92487 c -0.05061,-0.50868 -0.163334,-1.27381 -0.250485,-1.70028 -0.08715,-0.42647 -0.239672,-1.01702 -0.338935,-1.31233 -0.09926,-0.29531 -0.314084,-0.80355 -0.477379,-1.12942 -0.163295,-0.32587 -0.423728,-0.76402 -0.578741,-0.97367 -0.155012,-0.20965 -0.446599,-0.53941 -0.64797,-0.73282 -0.201371,-0.1934 -0.608223,-0.50647 -0.904116,-0.69571 -0.295893,-0.18925 -0.753093,-0.42506 -1.016,-0.52404 -0.262907,-0.099 -0.75752,-0.2519 -1.099141,-0.33985 l -0.621128,-0.15989 -1.125614,-0.0937 -1.125613,-0.0937 -0.793259,0.0959 -0.793258,0.0959 -0.696155,0.23935 -0.696157,0.23935 -0.628434,0.35957 -0.628435,0.35956 -0.566144,0.51097 -0.566145,0.51096 -0.416448,0.59298 -0.416431,0.59298 v -1.49495 -1.49494 h -3.259657 -3.259666 v 10.78088 10.78089 l 0.05645,0.0565 0.05644,0.0564 h 3.330223 3.330222 l 2.54e-4,-5.82083 z m -12.747377,-19.1401 0.587863,-0.27615 0.376352,-0.30839 0.376351,-0.3084 0.328202,-0.50779 0.328203,-0.50779 0.168084,-0.54419 0.168083,-0.54419 v -0.57483 -0.57483 l -0.170118,-0.55078 -0.170119,-0.55078 -0.35189,-0.52696 -0.351891,-0.52696 -0.496127,-0.36523 -0.496128,-0.36523 -0.484696,-0.18643 -0.484697,-0.18644 -0.691845,-0.0408 -0.691846,-0.0408 -0.58167,0.17668 -0.581671,0.17668 -0.510383,0.32987 -0.510384,0.32988 -0.308392,0.37635 c -0.169616,0.207 -0.433661,0.64089 -0.586767,0.96422 l -0.278375,0.58786 v 0.97367 0.97366 l 0.314546,0.65874 0.314546,0.65873 0.454535,0.45454 0.454534,0.45453 0.458586,0.23401 c 0.252222,0.1287 0.610986,0.28447 0.797252,0.34615 l 0.338667,0.11215 0.846667,-0.0223 0.846666,-0.0223 z" id="path28" />
   </g>
</svg>
